<mxfile host="65bd71144e">
    <diagram name="Page-1" id="VfGs-vbnRTk7LO-f_Ld_">
        <mxGraphModel dx="1023" dy="922" grid="1" gridSize="10" guides="0" tooltips="1" connect="1" arrows="0" fold="1" page="1" pageScale="1" pageWidth="827" pageHeight="1169" math="0" shadow="0">
            <root>
                <mxCell id="0"/>
                <mxCell id="1" parent="0"/>
                <mxCell id="F5HmfAsB2qFDXrAzad_Q-10" style="edgeStyle=orthogonalEdgeStyle;rounded=0;orthogonalLoop=1;jettySize=auto;html=1;exitX=0.5;exitY=0;exitDx=0;exitDy=0;entryX=0.5;entryY=1;entryDx=0;entryDy=0;endArrow=none;endFill=0;" parent="1" source="F5HmfAsB2qFDXrAzad_Q-1" target="F5HmfAsB2qFDXrAzad_Q-9" edge="1">
                    <mxGeometry relative="1" as="geometry"/>
                </mxCell>
                <mxCell id="F5HmfAsB2qFDXrAzad_Q-14" value="1-n" style="edgeLabel;html=1;align=center;verticalAlign=middle;resizable=0;points=[];" parent="F5HmfAsB2qFDXrAzad_Q-10" vertex="1" connectable="0">
                    <mxGeometry x="-0.2525" y="2" relative="1" as="geometry">
                        <mxPoint x="12" y="9" as="offset"/>
                    </mxGeometry>
                </mxCell>
                <mxCell id="F5HmfAsB2qFDXrAzad_Q-1" value="Utilisateur" style="swimlane;fontStyle=1;align=center;verticalAlign=top;childLayout=stackLayout;horizontal=1;startSize=26;horizontalStack=0;resizeParent=1;resizeParentMax=0;resizeLast=0;collapsible=1;marginBottom=0;whiteSpace=wrap;html=1;" parent="1" vertex="1">
                    <mxGeometry x="330" y="310" width="210" height="150" as="geometry"/>
                </mxCell>
                <mxCell id="F5HmfAsB2qFDXrAzad_Q-2" value="email : VARCHAR&lt;span style=&quot;background-color: initial;&quot;&gt;(100)&lt;/span&gt;" style="text;strokeColor=none;fillColor=none;align=left;verticalAlign=top;spacingLeft=4;spacingRight=4;overflow=hidden;rotatable=0;points=[[0,0.5],[1,0.5]];portConstraint=eastwest;whiteSpace=wrap;html=1;" parent="F5HmfAsB2qFDXrAzad_Q-1" vertex="1">
                    <mxGeometry y="26" width="210" height="26" as="geometry"/>
                </mxCell>
                <mxCell id="F5HmfAsB2qFDXrAzad_Q-3" value="" style="line;strokeWidth=1;fillColor=none;align=left;verticalAlign=middle;spacingTop=-1;spacingLeft=3;spacingRight=3;rotatable=0;labelPosition=right;points=[];portConstraint=eastwest;strokeColor=inherit;" parent="F5HmfAsB2qFDXrAzad_Q-1" vertex="1">
                    <mxGeometry y="52" width="210" height="8" as="geometry"/>
                </mxCell>
                <mxCell id="F5HmfAsB2qFDXrAzad_Q-4" value="nom : VARCHAR(100)&lt;div&gt;id_avantage_nom : VARCHAR(50)&lt;/div&gt;&lt;div&gt;id_avantage_type : ENUM&lt;/div&gt;&lt;div&gt;id_avantage_valeur : DECIMAL(10,2)&lt;/div&gt;&lt;div&gt;id_status_nom : VARCHAR(50)&lt;/div&gt;" style="text;strokeColor=none;fillColor=none;align=left;verticalAlign=top;spacingLeft=4;spacingRight=4;overflow=hidden;rotatable=0;points=[[0,0.5],[1,0.5]];portConstraint=eastwest;whiteSpace=wrap;html=1;" parent="F5HmfAsB2qFDXrAzad_Q-1" vertex="1">
                    <mxGeometry y="60" width="210" height="90" as="geometry"/>
                </mxCell>
                <mxCell id="F5HmfAsB2qFDXrAzad_Q-5" value="HistoriqueTransactions" style="swimlane;fontStyle=1;align=center;verticalAlign=top;childLayout=stackLayout;horizontal=1;startSize=26;horizontalStack=0;resizeParent=1;resizeParentMax=0;resizeLast=0;collapsible=1;marginBottom=0;whiteSpace=wrap;html=1;" parent="1" vertex="1">
                    <mxGeometry x="320" y="10" width="200" height="120" as="geometry"/>
                </mxCell>
                <mxCell id="F5HmfAsB2qFDXrAzad_Q-6" value="email_utilisateur : VARCHAR(100)&lt;div&gt;date_action : DATETIME&lt;/div&gt;" style="text;strokeColor=none;fillColor=none;align=left;verticalAlign=top;spacingLeft=4;spacingRight=4;overflow=hidden;rotatable=0;points=[[0,0.5],[1,0.5]];portConstraint=eastwest;whiteSpace=wrap;html=1;" parent="F5HmfAsB2qFDXrAzad_Q-5" vertex="1">
                    <mxGeometry y="26" width="200" height="44" as="geometry"/>
                </mxCell>
                <mxCell id="F5HmfAsB2qFDXrAzad_Q-7" value="" style="line;strokeWidth=1;fillColor=none;align=left;verticalAlign=middle;spacingTop=-1;spacingLeft=3;spacingRight=3;rotatable=0;labelPosition=right;points=[];portConstraint=eastwest;strokeColor=inherit;" parent="F5HmfAsB2qFDXrAzad_Q-5" vertex="1">
                    <mxGeometry y="70" width="200" height="8" as="geometry"/>
                </mxCell>
                <mxCell id="F5HmfAsB2qFDXrAzad_Q-8" value="action :&amp;nbsp; VARCHAR(255)&lt;div&gt;details : TEXT&lt;/div&gt;" style="text;strokeColor=none;fillColor=none;align=left;verticalAlign=top;spacingLeft=4;spacingRight=4;overflow=hidden;rotatable=0;points=[[0,0.5],[1,0.5]];portConstraint=eastwest;whiteSpace=wrap;html=1;" parent="F5HmfAsB2qFDXrAzad_Q-5" vertex="1">
                    <mxGeometry y="78" width="200" height="42" as="geometry"/>
                </mxCell>
                <mxCell id="F5HmfAsB2qFDXrAzad_Q-11" style="edgeStyle=orthogonalEdgeStyle;rounded=0;orthogonalLoop=1;jettySize=auto;html=1;exitX=0.5;exitY=0;exitDx=0;exitDy=0;endArrow=none;endFill=0;" parent="1" source="F5HmfAsB2qFDXrAzad_Q-9" target="F5HmfAsB2qFDXrAzad_Q-5" edge="1">
                    <mxGeometry relative="1" as="geometry"/>
                </mxCell>
                <mxCell id="F5HmfAsB2qFDXrAzad_Q-12" value="1-1" style="edgeLabel;html=1;align=center;verticalAlign=middle;resizable=0;points=[];" parent="F5HmfAsB2qFDXrAzad_Q-11" vertex="1" connectable="0">
                    <mxGeometry x="0.6754" relative="1" as="geometry">
                        <mxPoint x="10" as="offset"/>
                    </mxGeometry>
                </mxCell>
                <mxCell id="F5HmfAsB2qFDXrAzad_Q-9" value="a un historique" style="rhombus;whiteSpace=wrap;html=1;" parent="1" vertex="1">
                    <mxGeometry x="342" y="180" width="98" height="80" as="geometry"/>
                </mxCell>
                <mxCell id="F5HmfAsB2qFDXrAzad_Q-15" value="Avantage" style="swimlane;fontStyle=1;align=center;verticalAlign=top;childLayout=stackLayout;horizontal=1;startSize=26;horizontalStack=0;resizeParent=1;resizeParentMax=0;resizeLast=0;collapsible=1;marginBottom=0;whiteSpace=wrap;html=1;" parent="1" vertex="1">
                    <mxGeometry x="10" y="10" width="300" height="130" as="geometry"/>
                </mxCell>
                <mxCell id="F5HmfAsB2qFDXrAzad_Q-16" value="nom : VARCHAR(50)&lt;div&gt;type : ENUM&lt;/div&gt;&lt;div&gt;valeur : DECIMAL(10,2)&lt;/div&gt;" style="text;strokeColor=none;fillColor=none;align=left;verticalAlign=top;spacingLeft=4;spacingRight=4;overflow=hidden;rotatable=0;points=[[0,0.5],[1,0.5]];portConstraint=eastwest;whiteSpace=wrap;html=1;" parent="F5HmfAsB2qFDXrAzad_Q-15" vertex="1">
                    <mxGeometry y="26" width="300" height="54" as="geometry"/>
                </mxCell>
                <mxCell id="F5HmfAsB2qFDXrAzad_Q-17" value="" style="line;strokeWidth=1;fillColor=none;align=left;verticalAlign=middle;spacingTop=-1;spacingLeft=3;spacingRight=3;rotatable=0;labelPosition=right;points=[];portConstraint=eastwest;strokeColor=inherit;" parent="F5HmfAsB2qFDXrAzad_Q-15" vertex="1">
                    <mxGeometry y="80" width="300" height="8" as="geometry"/>
                </mxCell>
                <mxCell id="F5HmfAsB2qFDXrAzad_Q-18" value="description : TEXT&lt;div&gt;date_expiration : DATE&lt;/div&gt;" style="text;strokeColor=none;fillColor=none;align=left;verticalAlign=top;spacingLeft=4;spacingRight=4;overflow=hidden;rotatable=0;points=[[0,0.5],[1,0.5]];portConstraint=eastwest;whiteSpace=wrap;html=1;" parent="F5HmfAsB2qFDXrAzad_Q-15" vertex="1">
                    <mxGeometry y="88" width="300" height="42" as="geometry"/>
                </mxCell>
                <mxCell id="F5HmfAsB2qFDXrAzad_Q-20" style="edgeStyle=orthogonalEdgeStyle;rounded=0;orthogonalLoop=1;jettySize=auto;html=1;exitX=1;exitY=0.5;exitDx=0;exitDy=0;entryX=0;entryY=0;entryDx=0;entryDy=0;endArrow=none;endFill=0;" parent="1" source="F5HmfAsB2qFDXrAzad_Q-19" target="F5HmfAsB2qFDXrAzad_Q-1" edge="1">
                    <mxGeometry relative="1" as="geometry"/>
                </mxCell>
                <mxCell id="F5HmfAsB2qFDXrAzad_Q-23" value="0-1" style="edgeLabel;html=1;align=center;verticalAlign=middle;resizable=0;points=[];" parent="F5HmfAsB2qFDXrAzad_Q-20" vertex="1" connectable="0">
                    <mxGeometry x="0.2844" y="1" relative="1" as="geometry">
                        <mxPoint x="9" y="53" as="offset"/>
                    </mxGeometry>
                </mxCell>
                <mxCell id="F5HmfAsB2qFDXrAzad_Q-21" style="edgeStyle=orthogonalEdgeStyle;rounded=0;orthogonalLoop=1;jettySize=auto;html=1;exitX=0.5;exitY=0;exitDx=0;exitDy=0;endArrow=none;endFill=0;" parent="1" source="F5HmfAsB2qFDXrAzad_Q-19" target="F5HmfAsB2qFDXrAzad_Q-15" edge="1">
                    <mxGeometry relative="1" as="geometry"/>
                </mxCell>
                <mxCell id="F5HmfAsB2qFDXrAzad_Q-24" value="1-1" style="edgeLabel;html=1;align=center;verticalAlign=middle;resizable=0;points=[];" parent="F5HmfAsB2qFDXrAzad_Q-21" vertex="1" connectable="0">
                    <mxGeometry x="0.0862" relative="1" as="geometry">
                        <mxPoint x="10" y="-7" as="offset"/>
                    </mxGeometry>
                </mxCell>
                <mxCell id="F5HmfAsB2qFDXrAzad_Q-19" value="a un avantage" style="rhombus;whiteSpace=wrap;html=1;" parent="1" vertex="1">
                    <mxGeometry x="113.5" y="170" width="93" height="80" as="geometry"/>
                </mxCell>
                <mxCell id="F5HmfAsB2qFDXrAzad_Q-25" value="StatutUtilisateur" style="swimlane;fontStyle=1;align=center;verticalAlign=top;childLayout=stackLayout;horizontal=1;startSize=26;horizontalStack=0;resizeParent=1;resizeParentMax=0;resizeLast=0;collapsible=1;marginBottom=0;whiteSpace=wrap;html=1;" parent="1" vertex="1">
                    <mxGeometry x="528" y="10" width="200" height="90" as="geometry"/>
                </mxCell>
                <mxCell id="F5HmfAsB2qFDXrAzad_Q-26" value="nom : VARCHAR(50)" style="text;strokeColor=none;fillColor=none;align=left;verticalAlign=top;spacingLeft=4;spacingRight=4;overflow=hidden;rotatable=0;points=[[0,0.5],[1,0.5]];portConstraint=eastwest;whiteSpace=wrap;html=1;" parent="F5HmfAsB2qFDXrAzad_Q-25" vertex="1">
                    <mxGeometry y="26" width="200" height="24" as="geometry"/>
                </mxCell>
                <mxCell id="F5HmfAsB2qFDXrAzad_Q-27" value="" style="line;strokeWidth=1;fillColor=none;align=left;verticalAlign=middle;spacingTop=-1;spacingLeft=3;spacingRight=3;rotatable=0;labelPosition=right;points=[];portConstraint=eastwest;strokeColor=inherit;" parent="F5HmfAsB2qFDXrAzad_Q-25" vertex="1">
                    <mxGeometry y="50" width="200" height="8" as="geometry"/>
                </mxCell>
                <mxCell id="F5HmfAsB2qFDXrAzad_Q-28" value="limite_places : INT" style="text;strokeColor=none;fillColor=none;align=left;verticalAlign=top;spacingLeft=4;spacingRight=4;overflow=hidden;rotatable=0;points=[[0,0.5],[1,0.5]];portConstraint=eastwest;whiteSpace=wrap;html=1;" parent="F5HmfAsB2qFDXrAzad_Q-25" vertex="1">
                    <mxGeometry y="58" width="200" height="32" as="geometry"/>
                </mxCell>
                <mxCell id="F5HmfAsB2qFDXrAzad_Q-30" style="edgeStyle=orthogonalEdgeStyle;rounded=0;orthogonalLoop=1;jettySize=auto;html=1;exitX=0.5;exitY=0;exitDx=0;exitDy=0;endArrow=none;endFill=0;" parent="1" source="F5HmfAsB2qFDXrAzad_Q-29" target="F5HmfAsB2qFDXrAzad_Q-25" edge="1">
                    <mxGeometry relative="1" as="geometry"/>
                </mxCell>
                <mxCell id="F5HmfAsB2qFDXrAzad_Q-33" value="1-1" style="edgeLabel;html=1;align=center;verticalAlign=middle;resizable=0;points=[];" parent="F5HmfAsB2qFDXrAzad_Q-30" vertex="1" connectable="0">
                    <mxGeometry x="0.6974" relative="1" as="geometry">
                        <mxPoint x="12" y="3" as="offset"/>
                    </mxGeometry>
                </mxCell>
                <mxCell id="F5HmfAsB2qFDXrAzad_Q-31" style="edgeStyle=orthogonalEdgeStyle;rounded=0;orthogonalLoop=1;jettySize=auto;html=1;exitX=0;exitY=1;exitDx=0;exitDy=0;entryX=0.75;entryY=0;entryDx=0;entryDy=0;endArrow=none;endFill=0;" parent="1" source="F5HmfAsB2qFDXrAzad_Q-29" target="F5HmfAsB2qFDXrAzad_Q-1" edge="1">
                    <mxGeometry relative="1" as="geometry"/>
                </mxCell>
                <mxCell id="F5HmfAsB2qFDXrAzad_Q-32" value="1-1" style="edgeLabel;html=1;align=center;verticalAlign=middle;resizable=0;points=[];" parent="F5HmfAsB2qFDXrAzad_Q-31" vertex="1" connectable="0">
                    <mxGeometry x="0.8557" y="1" relative="1" as="geometry">
                        <mxPoint x="12" y="5" as="offset"/>
                    </mxGeometry>
                </mxCell>
                <mxCell id="F5HmfAsB2qFDXrAzad_Q-29" value="a un status" style="rhombus;whiteSpace=wrap;html=1;" parent="1" vertex="1">
                    <mxGeometry x="500" y="160" width="85" height="80" as="geometry"/>
                </mxCell>
                <mxCell id="F5HmfAsB2qFDXrAzad_Q-34" value="CreneauConnexion" style="swimlane;fontStyle=1;align=center;verticalAlign=top;childLayout=stackLayout;horizontal=1;startSize=26;horizontalStack=0;resizeParent=1;resizeParentMax=0;resizeLast=0;collapsible=1;marginBottom=0;whiteSpace=wrap;html=1;" parent="1" vertex="1">
                    <mxGeometry y="280" width="200" height="120" as="geometry"/>
                </mxCell>
                <mxCell id="F5HmfAsB2qFDXrAzad_Q-35" value="email_utilisateur : VARCHAR(100)&lt;div&gt;date_heure_debut : DATETIME&lt;/div&gt;" style="text;strokeColor=none;fillColor=none;align=left;verticalAlign=top;spacingLeft=4;spacingRight=4;overflow=hidden;rotatable=0;points=[[0,0.5],[1,0.5]];portConstraint=eastwest;whiteSpace=wrap;html=1;" parent="F5HmfAsB2qFDXrAzad_Q-34" vertex="1">
                    <mxGeometry y="26" width="200" height="44" as="geometry"/>
                </mxCell>
                <mxCell id="F5HmfAsB2qFDXrAzad_Q-36" value="" style="line;strokeWidth=1;fillColor=none;align=left;verticalAlign=middle;spacingTop=-1;spacingLeft=3;spacingRight=3;rotatable=0;labelPosition=right;points=[];portConstraint=eastwest;strokeColor=inherit;" parent="F5HmfAsB2qFDXrAzad_Q-34" vertex="1">
                    <mxGeometry y="70" width="200" height="8" as="geometry"/>
                </mxCell>
                <mxCell id="F5HmfAsB2qFDXrAzad_Q-37" value="date_heure_fin : DATETIME&lt;div&gt;status : ENUM&lt;/div&gt;" style="text;strokeColor=none;fillColor=none;align=left;verticalAlign=top;spacingLeft=4;spacingRight=4;overflow=hidden;rotatable=0;points=[[0,0.5],[1,0.5]];portConstraint=eastwest;whiteSpace=wrap;html=1;" parent="F5HmfAsB2qFDXrAzad_Q-34" vertex="1">
                    <mxGeometry y="78" width="200" height="42" as="geometry"/>
                </mxCell>
                <mxCell id="F5HmfAsB2qFDXrAzad_Q-38" value="a un creneau" style="rhombus;whiteSpace=wrap;html=1;" parent="1" vertex="1">
                    <mxGeometry x="224" y="290" width="96" height="80" as="geometry"/>
                </mxCell>
                <mxCell id="F5HmfAsB2qFDXrAzad_Q-39" style="edgeStyle=orthogonalEdgeStyle;rounded=0;orthogonalLoop=1;jettySize=auto;html=1;exitX=0;exitY=0.5;exitDx=0;exitDy=0;entryX=1;entryY=1;entryDx=0;entryDy=0;endArrow=none;endFill=0;" parent="1" source="F5HmfAsB2qFDXrAzad_Q-4" target="F5HmfAsB2qFDXrAzad_Q-38" edge="1">
                    <mxGeometry relative="1" as="geometry"/>
                </mxCell>
                <mxCell id="F5HmfAsB2qFDXrAzad_Q-44" value="0-1" style="edgeLabel;html=1;align=center;verticalAlign=middle;resizable=0;points=[];" parent="F5HmfAsB2qFDXrAzad_Q-39" vertex="1" connectable="0">
                    <mxGeometry x="-0.8092" relative="1" as="geometry">
                        <mxPoint y="15" as="offset"/>
                    </mxGeometry>
                </mxCell>
                <mxCell id="F5HmfAsB2qFDXrAzad_Q-43" style="edgeStyle=orthogonalEdgeStyle;rounded=0;orthogonalLoop=1;jettySize=auto;html=1;exitX=1;exitY=0.5;exitDx=0;exitDy=0;entryX=0;entryY=1;entryDx=0;entryDy=0;endArrow=none;endFill=0;" parent="1" source="F5HmfAsB2qFDXrAzad_Q-37" target="F5HmfAsB2qFDXrAzad_Q-38" edge="1">
                    <mxGeometry relative="1" as="geometry"/>
                </mxCell>
                <mxCell id="F5HmfAsB2qFDXrAzad_Q-45" value="1-1" style="edgeLabel;html=1;align=center;verticalAlign=middle;resizable=0;points=[];" parent="F5HmfAsB2qFDXrAzad_Q-43" vertex="1" connectable="0">
                    <mxGeometry x="-0.798" relative="1" as="geometry">
                        <mxPoint y="11" as="offset"/>
                    </mxGeometry>
                </mxCell>
                <mxCell id="F5HmfAsB2qFDXrAzad_Q-80" style="edgeStyle=orthogonalEdgeStyle;rounded=0;orthogonalLoop=1;jettySize=auto;html=1;exitX=0.5;exitY=0;exitDx=0;exitDy=0;entryX=0.5;entryY=1;entryDx=0;entryDy=0;endArrow=none;endFill=0;" parent="1" source="F5HmfAsB2qFDXrAzad_Q-46" target="F5HmfAsB2qFDXrAzad_Q-78" edge="1">
                    <mxGeometry relative="1" as="geometry"/>
                </mxCell>
                <mxCell id="F5HmfAsB2qFDXrAzad_Q-81" value="1-1" style="edgeLabel;html=1;align=center;verticalAlign=middle;resizable=0;points=[];" parent="F5HmfAsB2qFDXrAzad_Q-80" vertex="1" connectable="0">
                    <mxGeometry x="0.3681" relative="1" as="geometry">
                        <mxPoint x="17" y="5" as="offset"/>
                    </mxGeometry>
                </mxCell>
                <mxCell id="F5HmfAsB2qFDXrAzad_Q-46" value="Billet" style="swimlane;fontStyle=1;align=center;verticalAlign=top;childLayout=stackLayout;horizontal=1;startSize=26;horizontalStack=0;resizeParent=1;resizeParentMax=0;resizeLast=0;collapsible=1;marginBottom=0;whiteSpace=wrap;html=1;" parent="1" vertex="1">
                    <mxGeometry x="720" y="310" width="210" height="150" as="geometry"/>
                </mxCell>
                <mxCell id="F5HmfAsB2qFDXrAzad_Q-47" value="email_utilisateur : VARCHAR(100)&lt;div&gt;nom_evenement : VARCHAR(255)&lt;/div&gt;&lt;div&gt;date_heure : DATETIME&lt;/div&gt;&lt;div&gt;nom_categorie : VARCHAR(100)&lt;/div&gt;" style="text;strokeColor=none;fillColor=none;align=left;verticalAlign=top;spacingLeft=4;spacingRight=4;overflow=hidden;rotatable=0;points=[[0,0.5],[1,0.5]];portConstraint=eastwest;whiteSpace=wrap;html=1;" parent="F5HmfAsB2qFDXrAzad_Q-46" vertex="1">
                    <mxGeometry y="26" width="210" height="74" as="geometry"/>
                </mxCell>
                <mxCell id="F5HmfAsB2qFDXrAzad_Q-48" value="" style="line;strokeWidth=1;fillColor=none;align=left;verticalAlign=middle;spacingTop=-1;spacingLeft=3;spacingRight=3;rotatable=0;labelPosition=right;points=[];portConstraint=eastwest;strokeColor=inherit;" parent="F5HmfAsB2qFDXrAzad_Q-46" vertex="1">
                    <mxGeometry y="100" width="210" height="8" as="geometry"/>
                </mxCell>
                <mxCell id="F5HmfAsB2qFDXrAzad_Q-49" value="prix_final : DECIMAL(10,2)&lt;div&gt;date_achat : DATETIME&lt;/div&gt;" style="text;strokeColor=none;fillColor=none;align=left;verticalAlign=top;spacingLeft=4;spacingRight=4;overflow=hidden;rotatable=0;points=[[0,0.5],[1,0.5]];portConstraint=eastwest;whiteSpace=wrap;html=1;" parent="F5HmfAsB2qFDXrAzad_Q-46" vertex="1">
                    <mxGeometry y="108" width="210" height="42" as="geometry"/>
                </mxCell>
                <mxCell id="F5HmfAsB2qFDXrAzad_Q-52" style="edgeStyle=orthogonalEdgeStyle;rounded=0;orthogonalLoop=1;jettySize=auto;html=1;exitX=0;exitY=0.5;exitDx=0;exitDy=0;entryX=1;entryY=0.5;entryDx=0;entryDy=0;endArrow=none;endFill=0;" parent="1" source="F5HmfAsB2qFDXrAzad_Q-50" target="F5HmfAsB2qFDXrAzad_Q-4" edge="1">
                    <mxGeometry relative="1" as="geometry"/>
                </mxCell>
                <mxCell id="F5HmfAsB2qFDXrAzad_Q-55" value="0-n" style="edgeLabel;html=1;align=center;verticalAlign=middle;resizable=0;points=[];" parent="F5HmfAsB2qFDXrAzad_Q-52" vertex="1" connectable="0">
                    <mxGeometry x="0.7562" y="-2" relative="1" as="geometry">
                        <mxPoint y="17" as="offset"/>
                    </mxGeometry>
                </mxCell>
                <mxCell id="F5HmfAsB2qFDXrAzad_Q-53" style="edgeStyle=orthogonalEdgeStyle;rounded=0;orthogonalLoop=1;jettySize=auto;html=1;exitX=1;exitY=0.5;exitDx=0;exitDy=0;entryX=0;entryY=0.5;entryDx=0;entryDy=0;endArrow=none;endFill=0;" parent="1" source="F5HmfAsB2qFDXrAzad_Q-50" target="F5HmfAsB2qFDXrAzad_Q-47" edge="1">
                    <mxGeometry relative="1" as="geometry"/>
                </mxCell>
                <mxCell id="F5HmfAsB2qFDXrAzad_Q-54" value="1-1" style="edgeLabel;html=1;align=center;verticalAlign=middle;resizable=0;points=[];" parent="F5HmfAsB2qFDXrAzad_Q-53" vertex="1" connectable="0">
                    <mxGeometry x="0.7043" relative="1" as="geometry">
                        <mxPoint y="-13" as="offset"/>
                    </mxGeometry>
                </mxCell>
                <mxCell id="F5HmfAsB2qFDXrAzad_Q-50" value="achete" style="rhombus;whiteSpace=wrap;html=1;" parent="1" vertex="1">
                    <mxGeometry x="580" y="340" width="85" height="80" as="geometry"/>
                </mxCell>
                <mxCell id="F5HmfAsB2qFDXrAzad_Q-56" value="Categorie" style="swimlane;fontStyle=1;align=center;verticalAlign=top;childLayout=stackLayout;horizontal=1;startSize=26;horizontalStack=0;resizeParent=1;resizeParentMax=0;resizeLast=0;collapsible=1;marginBottom=0;whiteSpace=wrap;html=1;" parent="1" vertex="1">
                    <mxGeometry x="750" y="60" width="210" height="110" as="geometry"/>
                </mxCell>
                <mxCell id="F5HmfAsB2qFDXrAzad_Q-57" value="nom_evenement : VARCHAR(255)&lt;div&gt;date_heure : DATETIME&lt;/div&gt;&lt;div&gt;nom_categorie : VARCHAR(100)&lt;/div&gt;" style="text;strokeColor=none;fillColor=none;align=left;verticalAlign=top;spacingLeft=4;spacingRight=4;overflow=hidden;rotatable=0;points=[[0,0.5],[1,0.5]];portConstraint=eastwest;whiteSpace=wrap;html=1;" parent="F5HmfAsB2qFDXrAzad_Q-56" vertex="1">
                    <mxGeometry y="26" width="210" height="54" as="geometry"/>
                </mxCell>
                <mxCell id="F5HmfAsB2qFDXrAzad_Q-58" value="" style="line;strokeWidth=1;fillColor=none;align=left;verticalAlign=middle;spacingTop=-1;spacingLeft=3;spacingRight=3;rotatable=0;labelPosition=right;points=[];portConstraint=eastwest;strokeColor=inherit;" parent="F5HmfAsB2qFDXrAzad_Q-56" vertex="1">
                    <mxGeometry y="80" width="210" height="8" as="geometry"/>
                </mxCell>
                <mxCell id="F5HmfAsB2qFDXrAzad_Q-59" value="prix : DECIMAL(10,2)" style="text;strokeColor=none;fillColor=none;align=left;verticalAlign=top;spacingLeft=4;spacingRight=4;overflow=hidden;rotatable=0;points=[[0,0.5],[1,0.5]];portConstraint=eastwest;whiteSpace=wrap;html=1;" parent="F5HmfAsB2qFDXrAzad_Q-56" vertex="1">
                    <mxGeometry y="88" width="210" height="22" as="geometry"/>
                </mxCell>
                <mxCell id="F5HmfAsB2qFDXrAzad_Q-84" style="edgeStyle=orthogonalEdgeStyle;rounded=0;orthogonalLoop=1;jettySize=auto;html=1;exitX=0.25;exitY=0;exitDx=0;exitDy=0;entryX=0.5;entryY=1;entryDx=0;entryDy=0;endArrow=none;endFill=0;" parent="1" source="F5HmfAsB2qFDXrAzad_Q-60" target="F5HmfAsB2qFDXrAzad_Q-83" edge="1">
                    <mxGeometry relative="1" as="geometry"/>
                </mxCell>
                <mxCell id="F5HmfAsB2qFDXrAzad_Q-86" value="1-n" style="edgeLabel;html=1;align=center;verticalAlign=middle;resizable=0;points=[];" parent="F5HmfAsB2qFDXrAzad_Q-84" vertex="1" connectable="0">
                    <mxGeometry x="-0.5145" y="-1" relative="1" as="geometry">
                        <mxPoint x="17" y="5" as="offset"/>
                    </mxGeometry>
                </mxCell>
                <mxCell id="F5HmfAsB2qFDXrAzad_Q-60" value="Seance" style="swimlane;fontStyle=1;align=center;verticalAlign=top;childLayout=stackLayout;horizontal=1;startSize=26;horizontalStack=0;resizeParent=1;resizeParentMax=0;resizeLast=0;collapsible=1;marginBottom=0;whiteSpace=wrap;html=1;" parent="1" vertex="1">
                    <mxGeometry x="1090" y="220" width="210" height="100" as="geometry"/>
                </mxCell>
                <mxCell id="F5HmfAsB2qFDXrAzad_Q-61" value="nom_evenement : VARCHAR(255)&lt;div&gt;date_heure : DATETIME&lt;/div&gt;" style="text;strokeColor=none;fillColor=none;align=left;verticalAlign=top;spacingLeft=4;spacingRight=4;overflow=hidden;rotatable=0;points=[[0,0.5],[1,0.5]];portConstraint=eastwest;whiteSpace=wrap;html=1;" parent="F5HmfAsB2qFDXrAzad_Q-60" vertex="1">
                    <mxGeometry y="26" width="210" height="44" as="geometry"/>
                </mxCell>
                <mxCell id="F5HmfAsB2qFDXrAzad_Q-62" value="" style="line;strokeWidth=1;fillColor=none;align=left;verticalAlign=middle;spacingTop=-1;spacingLeft=3;spacingRight=3;rotatable=0;labelPosition=right;points=[];portConstraint=eastwest;strokeColor=inherit;" parent="F5HmfAsB2qFDXrAzad_Q-60" vertex="1">
                    <mxGeometry y="70" width="210" height="8" as="geometry"/>
                </mxCell>
                <mxCell id="F5HmfAsB2qFDXrAzad_Q-63" value="type : ENUM" style="text;strokeColor=none;fillColor=none;align=left;verticalAlign=top;spacingLeft=4;spacingRight=4;overflow=hidden;rotatable=0;points=[[0,0.5],[1,0.5]];portConstraint=eastwest;whiteSpace=wrap;html=1;" parent="F5HmfAsB2qFDXrAzad_Q-60" vertex="1">
                    <mxGeometry y="78" width="210" height="22" as="geometry"/>
                </mxCell>
                <mxCell id="F5HmfAsB2qFDXrAzad_Q-115" style="edgeStyle=orthogonalEdgeStyle;rounded=0;orthogonalLoop=1;jettySize=auto;html=1;exitX=0.75;exitY=0;exitDx=0;exitDy=0;entryX=0.5;entryY=1;entryDx=0;entryDy=0;endArrow=none;endFill=0;" parent="1" source="F5HmfAsB2qFDXrAzad_Q-64" target="F5HmfAsB2qFDXrAzad_Q-113" edge="1">
                    <mxGeometry relative="1" as="geometry"/>
                </mxCell>
                <mxCell id="F5HmfAsB2qFDXrAzad_Q-119" value="1-1" style="edgeLabel;html=1;align=center;verticalAlign=middle;resizable=0;points=[];" parent="F5HmfAsB2qFDXrAzad_Q-115" vertex="1" connectable="0">
                    <mxGeometry x="-0.8131" y="-3" relative="1" as="geometry">
                        <mxPoint x="7" y="12" as="offset"/>
                    </mxGeometry>
                </mxCell>
                <mxCell id="F5HmfAsB2qFDXrAzad_Q-64" value="Evenement" style="swimlane;fontStyle=1;align=center;verticalAlign=top;childLayout=stackLayout;horizontal=1;startSize=26;horizontalStack=0;resizeParent=1;resizeParentMax=0;resizeLast=0;collapsible=1;marginBottom=0;whiteSpace=wrap;html=1;" parent="1" vertex="1">
                    <mxGeometry x="1150" y="470" width="320" height="150" as="geometry"/>
                </mxCell>
                <mxCell id="F5HmfAsB2qFDXrAzad_Q-65" value="nom : VARCHAR(255)&lt;div&gt;date_debut : DATETIME&lt;/div&gt;" style="text;strokeColor=none;fillColor=none;align=left;verticalAlign=top;spacingLeft=4;spacingRight=4;overflow=hidden;rotatable=0;points=[[0,0.5],[1,0.5]];portConstraint=eastwest;whiteSpace=wrap;html=1;" parent="F5HmfAsB2qFDXrAzad_Q-64" vertex="1">
                    <mxGeometry y="26" width="320" height="44" as="geometry"/>
                </mxCell>
                <mxCell id="F5HmfAsB2qFDXrAzad_Q-66" value="" style="line;strokeWidth=1;fillColor=none;align=left;verticalAlign=middle;spacingTop=-1;spacingLeft=3;spacingRight=3;rotatable=0;labelPosition=right;points=[];portConstraint=eastwest;strokeColor=inherit;" parent="F5HmfAsB2qFDXrAzad_Q-64" vertex="1">
                    <mxGeometry y="70" width="320" height="8" as="geometry"/>
                </mxCell>
                <mxCell id="F5HmfAsB2qFDXrAzad_Q-67" value="description : TEXT&lt;div&gt;date_fin : DATETIME&lt;/div&gt;&lt;div&gt;nom_evenement_principal : VARCHAR(255)&lt;/div&gt;&lt;div&gt;date_debut_evenement_principal : DATETIME&lt;/div&gt;" style="text;strokeColor=none;fillColor=none;align=left;verticalAlign=top;spacingLeft=4;spacingRight=4;overflow=hidden;rotatable=0;points=[[0,0.5],[1,0.5]];portConstraint=eastwest;whiteSpace=wrap;html=1;" parent="F5HmfAsB2qFDXrAzad_Q-64" vertex="1">
                    <mxGeometry y="78" width="320" height="72" as="geometry"/>
                </mxCell>
                <mxCell id="F5HmfAsB2qFDXrAzad_Q-69" style="edgeStyle=orthogonalEdgeStyle;rounded=0;orthogonalLoop=1;jettySize=auto;html=1;exitX=0;exitY=0.5;exitDx=0;exitDy=0;entryX=1;entryY=0.5;entryDx=0;entryDy=0;endArrow=none;endFill=0;" parent="1" source="F5HmfAsB2qFDXrAzad_Q-68" target="F5HmfAsB2qFDXrAzad_Q-47" edge="1">
                    <mxGeometry relative="1" as="geometry"/>
                </mxCell>
                <mxCell id="F5HmfAsB2qFDXrAzad_Q-71" value="1-1" style="edgeLabel;html=1;align=center;verticalAlign=middle;resizable=0;points=[];" parent="F5HmfAsB2qFDXrAzad_Q-69" vertex="1" connectable="0">
                    <mxGeometry x="0.5735" y="1" relative="1" as="geometry">
                        <mxPoint y="6" as="offset"/>
                    </mxGeometry>
                </mxCell>
                <mxCell id="F5HmfAsB2qFDXrAzad_Q-70" style="edgeStyle=orthogonalEdgeStyle;rounded=0;orthogonalLoop=1;jettySize=auto;html=1;exitX=1;exitY=0;exitDx=0;exitDy=0;entryX=0;entryY=0.5;entryDx=0;entryDy=0;endArrow=none;endFill=0;" parent="1" source="F5HmfAsB2qFDXrAzad_Q-68" target="F5HmfAsB2qFDXrAzad_Q-61" edge="1">
                    <mxGeometry relative="1" as="geometry"/>
                </mxCell>
                <mxCell id="F5HmfAsB2qFDXrAzad_Q-72" value="0-n" style="edgeLabel;html=1;align=center;verticalAlign=middle;resizable=0;points=[];" parent="F5HmfAsB2qFDXrAzad_Q-70" vertex="1" connectable="0">
                    <mxGeometry x="0.7212" y="4" relative="1" as="geometry">
                        <mxPoint x="9" y="-4" as="offset"/>
                    </mxGeometry>
                </mxCell>
                <mxCell id="F5HmfAsB2qFDXrAzad_Q-68" value="appartient" style="rhombus;whiteSpace=wrap;html=1;" parent="1" vertex="1">
                    <mxGeometry x="970" y="330" width="85" height="80" as="geometry"/>
                </mxCell>
                <mxCell id="F5HmfAsB2qFDXrAzad_Q-74" style="edgeStyle=orthogonalEdgeStyle;rounded=0;orthogonalLoop=1;jettySize=auto;html=1;exitX=0.5;exitY=0;exitDx=0;exitDy=0;endArrow=none;endFill=0;" parent="1" source="F5HmfAsB2qFDXrAzad_Q-73" target="F5HmfAsB2qFDXrAzad_Q-60" edge="1">
                    <mxGeometry relative="1" as="geometry"/>
                </mxCell>
                <mxCell id="F5HmfAsB2qFDXrAzad_Q-76" value="1-1" style="edgeLabel;html=1;align=center;verticalAlign=middle;resizable=0;points=[];" parent="F5HmfAsB2qFDXrAzad_Q-74" vertex="1" connectable="0">
                    <mxGeometry x="-0.3544" y="1" relative="1" as="geometry">
                        <mxPoint x="19" as="offset"/>
                    </mxGeometry>
                </mxCell>
                <mxCell id="F5HmfAsB2qFDXrAzad_Q-75" style="edgeStyle=orthogonalEdgeStyle;rounded=0;orthogonalLoop=1;jettySize=auto;html=1;exitX=1;exitY=1;exitDx=0;exitDy=0;endArrow=none;endFill=0;" parent="1" source="F5HmfAsB2qFDXrAzad_Q-73" target="F5HmfAsB2qFDXrAzad_Q-64" edge="1">
                    <mxGeometry relative="1" as="geometry"/>
                </mxCell>
                <mxCell id="F5HmfAsB2qFDXrAzad_Q-77" value="1-n" style="edgeLabel;html=1;align=center;verticalAlign=middle;resizable=0;points=[];" parent="F5HmfAsB2qFDXrAzad_Q-75" vertex="1" connectable="0">
                    <mxGeometry x="0.7881" relative="1" as="geometry">
                        <mxPoint x="10" as="offset"/>
                    </mxGeometry>
                </mxCell>
                <mxCell id="F5HmfAsB2qFDXrAzad_Q-73" value="appartient" style="rhombus;whiteSpace=wrap;html=1;" parent="1" vertex="1">
                    <mxGeometry x="1180" y="350" width="85" height="80" as="geometry"/>
                </mxCell>
                <mxCell id="F5HmfAsB2qFDXrAzad_Q-79" style="edgeStyle=orthogonalEdgeStyle;rounded=0;orthogonalLoop=1;jettySize=auto;html=1;exitX=0.5;exitY=0;exitDx=0;exitDy=0;entryX=0.5;entryY=1;entryDx=0;entryDy=0;endArrow=none;endFill=0;" parent="1" source="F5HmfAsB2qFDXrAzad_Q-78" target="F5HmfAsB2qFDXrAzad_Q-56" edge="1">
                    <mxGeometry relative="1" as="geometry"/>
                </mxCell>
                <mxCell id="F5HmfAsB2qFDXrAzad_Q-82" value="0-n" style="edgeLabel;html=1;align=center;verticalAlign=middle;resizable=0;points=[];" parent="F5HmfAsB2qFDXrAzad_Q-79" vertex="1" connectable="0">
                    <mxGeometry x="0.0673" y="-2" relative="1" as="geometry">
                        <mxPoint x="13" y="-10" as="offset"/>
                    </mxGeometry>
                </mxCell>
                <mxCell id="F5HmfAsB2qFDXrAzad_Q-78" value="contient" style="rhombus;whiteSpace=wrap;html=1;" parent="1" vertex="1">
                    <mxGeometry x="800" y="200" width="85" height="80" as="geometry"/>
                </mxCell>
                <mxCell id="F5HmfAsB2qFDXrAzad_Q-83" value="contient" style="rhombus;whiteSpace=wrap;html=1;" parent="1" vertex="1">
                    <mxGeometry x="1100" y="80" width="85" height="80" as="geometry"/>
                </mxCell>
                <mxCell id="F5HmfAsB2qFDXrAzad_Q-85" style="edgeStyle=orthogonalEdgeStyle;rounded=0;orthogonalLoop=1;jettySize=auto;html=1;exitX=0;exitY=0.5;exitDx=0;exitDy=0;entryX=0.998;entryY=0.634;entryDx=0;entryDy=0;entryPerimeter=0;endArrow=none;endFill=0;" parent="1" source="F5HmfAsB2qFDXrAzad_Q-83" target="F5HmfAsB2qFDXrAzad_Q-57" edge="1">
                    <mxGeometry relative="1" as="geometry"/>
                </mxCell>
                <mxCell id="F5HmfAsB2qFDXrAzad_Q-87" value="1-1" style="edgeLabel;html=1;align=center;verticalAlign=middle;resizable=0;points=[];" parent="F5HmfAsB2qFDXrAzad_Q-85" vertex="1" connectable="0">
                    <mxGeometry x="0.7127" y="2" relative="1" as="geometry">
                        <mxPoint x="-10" y="-12" as="offset"/>
                    </mxGeometry>
                </mxCell>
                <mxCell id="F5HmfAsB2qFDXrAzad_Q-88" value="PreReservation" style="swimlane;fontStyle=1;align=center;verticalAlign=top;childLayout=stackLayout;horizontal=1;startSize=26;horizontalStack=0;resizeParent=1;resizeParentMax=0;resizeLast=0;collapsible=1;marginBottom=0;whiteSpace=wrap;html=1;" parent="1" vertex="1">
                    <mxGeometry x="340" y="680" width="210" height="140" as="geometry"/>
                </mxCell>
                <mxCell id="F5HmfAsB2qFDXrAzad_Q-89" value="email_utilisateur : VARCHAR(100)&lt;div&gt;nom_evenement : VARCHAR(255)&lt;/div&gt;&lt;div&gt;date_heure : DATETIME&lt;/div&gt;&lt;div&gt;nom_categorie VARCHAR(100)&lt;/div&gt;" style="text;strokeColor=none;fillColor=none;align=left;verticalAlign=top;spacingLeft=4;spacingRight=4;overflow=hidden;rotatable=0;points=[[0,0.5],[1,0.5]];portConstraint=eastwest;whiteSpace=wrap;html=1;" parent="F5HmfAsB2qFDXrAzad_Q-88" vertex="1">
                    <mxGeometry y="26" width="210" height="64" as="geometry"/>
                </mxCell>
                <mxCell id="F5HmfAsB2qFDXrAzad_Q-90" value="" style="line;strokeWidth=1;fillColor=none;align=left;verticalAlign=middle;spacingTop=-1;spacingLeft=3;spacingRight=3;rotatable=0;labelPosition=right;points=[];portConstraint=eastwest;strokeColor=inherit;" parent="F5HmfAsB2qFDXrAzad_Q-88" vertex="1">
                    <mxGeometry y="90" width="210" height="8" as="geometry"/>
                </mxCell>
                <mxCell id="F5HmfAsB2qFDXrAzad_Q-91" value="date_expiration : DATETIME&lt;div&gt;status : ENUM&lt;/div&gt;" style="text;strokeColor=none;fillColor=none;align=left;verticalAlign=top;spacingLeft=4;spacingRight=4;overflow=hidden;rotatable=0;points=[[0,0.5],[1,0.5]];portConstraint=eastwest;whiteSpace=wrap;html=1;" parent="F5HmfAsB2qFDXrAzad_Q-88" vertex="1">
                    <mxGeometry y="98" width="210" height="42" as="geometry"/>
                </mxCell>
                <mxCell id="F5HmfAsB2qFDXrAzad_Q-93" style="edgeStyle=orthogonalEdgeStyle;rounded=0;orthogonalLoop=1;jettySize=auto;html=1;exitX=1;exitY=0.5;exitDx=0;exitDy=0;entryX=0.5;entryY=0;entryDx=0;entryDy=0;endArrow=none;endFill=0;" parent="1" source="F5HmfAsB2qFDXrAzad_Q-92" target="F5HmfAsB2qFDXrAzad_Q-88" edge="1">
                    <mxGeometry relative="1" as="geometry"/>
                </mxCell>
                <mxCell id="F5HmfAsB2qFDXrAzad_Q-96" value="1-1" style="edgeLabel;html=1;align=center;verticalAlign=middle;resizable=0;points=[];" parent="F5HmfAsB2qFDXrAzad_Q-93" vertex="1" connectable="0">
                    <mxGeometry x="0.65" y="1" relative="1" as="geometry">
                        <mxPoint y="9" as="offset"/>
                    </mxGeometry>
                </mxCell>
                <mxCell id="F5HmfAsB2qFDXrAzad_Q-94" style="edgeStyle=orthogonalEdgeStyle;rounded=0;orthogonalLoop=1;jettySize=auto;html=1;exitX=0.5;exitY=0;exitDx=0;exitDy=0;endArrow=none;endFill=0;" parent="1" source="F5HmfAsB2qFDXrAzad_Q-92" target="F5HmfAsB2qFDXrAzad_Q-1" edge="1">
                    <mxGeometry relative="1" as="geometry"/>
                </mxCell>
                <mxCell id="F5HmfAsB2qFDXrAzad_Q-95" value="0-1" style="edgeLabel;html=1;align=center;verticalAlign=middle;resizable=0;points=[];" parent="F5HmfAsB2qFDXrAzad_Q-94" vertex="1" connectable="0">
                    <mxGeometry x="-0.4682" relative="1" as="geometry">
                        <mxPoint x="8" y="-62" as="offset"/>
                    </mxGeometry>
                </mxCell>
                <mxCell id="F5HmfAsB2qFDXrAzad_Q-92" value="reserve" style="rhombus;whiteSpace=wrap;html=1;" parent="1" vertex="1">
                    <mxGeometry x="400" y="560" width="85" height="80" as="geometry"/>
                </mxCell>
                <mxCell id="F5HmfAsB2qFDXrAzad_Q-100" value="EchangeBillet" style="swimlane;fontStyle=1;align=center;verticalAlign=top;childLayout=stackLayout;horizontal=1;startSize=26;horizontalStack=0;resizeParent=1;resizeParentMax=0;resizeLast=0;collapsible=1;marginBottom=0;whiteSpace=wrap;html=1;" parent="1" vertex="1">
                    <mxGeometry x="680" y="560" width="210" height="150" as="geometry"/>
                </mxCell>
                <mxCell id="F5HmfAsB2qFDXrAzad_Q-101" value="email_vendeur : VARCHAR(100)&lt;div&gt;email_acheteur : VARCHAR(100)&lt;/div&gt;&lt;div&gt;nom_evenement : VARCHAR(255)&lt;/div&gt;&lt;div&gt;date_heure : DATETIME&lt;/div&gt;&lt;div&gt;nom_categorie : VARCHAR(100)&lt;/div&gt;" style="text;strokeColor=none;fillColor=none;align=left;verticalAlign=top;spacingLeft=4;spacingRight=4;overflow=hidden;rotatable=0;points=[[0,0.5],[1,0.5]];portConstraint=eastwest;whiteSpace=wrap;html=1;" parent="F5HmfAsB2qFDXrAzad_Q-100" vertex="1">
                    <mxGeometry y="26" width="210" height="74" as="geometry"/>
                </mxCell>
                <mxCell id="F5HmfAsB2qFDXrAzad_Q-102" value="" style="line;strokeWidth=1;fillColor=none;align=left;verticalAlign=middle;spacingTop=-1;spacingLeft=3;spacingRight=3;rotatable=0;labelPosition=right;points=[];portConstraint=eastwest;strokeColor=inherit;" parent="F5HmfAsB2qFDXrAzad_Q-100" vertex="1">
                    <mxGeometry y="100" width="210" height="8" as="geometry"/>
                </mxCell>
                <mxCell id="F5HmfAsB2qFDXrAzad_Q-103" value="prix : DECIMAL(10,2)&lt;div&gt;status : ENUM&lt;/div&gt;" style="text;strokeColor=none;fillColor=none;align=left;verticalAlign=top;spacingLeft=4;spacingRight=4;overflow=hidden;rotatable=0;points=[[0,0.5],[1,0.5]];portConstraint=eastwest;whiteSpace=wrap;html=1;" parent="F5HmfAsB2qFDXrAzad_Q-100" vertex="1">
                    <mxGeometry y="108" width="210" height="42" as="geometry"/>
                </mxCell>
                <mxCell id="F5HmfAsB2qFDXrAzad_Q-106" style="edgeStyle=orthogonalEdgeStyle;rounded=0;orthogonalLoop=1;jettySize=auto;html=1;exitX=1;exitY=0.5;exitDx=0;exitDy=0;entryX=0.5;entryY=0;entryDx=0;entryDy=0;endArrow=none;endFill=0;" parent="1" source="F5HmfAsB2qFDXrAzad_Q-104" target="F5HmfAsB2qFDXrAzad_Q-100" edge="1">
                    <mxGeometry relative="1" as="geometry"/>
                </mxCell>
                <mxCell id="F5HmfAsB2qFDXrAzad_Q-108" value="1-1" style="edgeLabel;html=1;align=center;verticalAlign=middle;resizable=0;points=[];" parent="F5HmfAsB2qFDXrAzad_Q-106" vertex="1" connectable="0">
                    <mxGeometry x="0.7096" y="3" relative="1" as="geometry">
                        <mxPoint x="12" y="10" as="offset"/>
                    </mxGeometry>
                </mxCell>
                <mxCell id="F5HmfAsB2qFDXrAzad_Q-104" value="acheter/vendre" style="rhombus;whiteSpace=wrap;html=1;" parent="1" vertex="1">
                    <mxGeometry x="520" y="490" width="160" height="80" as="geometry"/>
                </mxCell>
                <mxCell id="F5HmfAsB2qFDXrAzad_Q-105" style="edgeStyle=orthogonalEdgeStyle;rounded=0;orthogonalLoop=1;jettySize=auto;html=1;exitX=0;exitY=0;exitDx=0;exitDy=0;entryX=1.001;entryY=0.987;entryDx=0;entryDy=0;entryPerimeter=0;endArrow=none;endFill=0;" parent="1" source="F5HmfAsB2qFDXrAzad_Q-104" target="F5HmfAsB2qFDXrAzad_Q-4" edge="1">
                    <mxGeometry relative="1" as="geometry"/>
                </mxCell>
                <mxCell id="F5HmfAsB2qFDXrAzad_Q-107" value="0-n" style="edgeLabel;html=1;align=center;verticalAlign=middle;resizable=0;points=[];" parent="F5HmfAsB2qFDXrAzad_Q-105" vertex="1" connectable="0">
                    <mxGeometry x="-0.1441" y="2" relative="1" as="geometry">
                        <mxPoint x="-18" y="-10" as="offset"/>
                    </mxGeometry>
                </mxCell>
                <mxCell id="F5HmfAsB2qFDXrAzad_Q-109" value="PolitiqueEtablissement" style="swimlane;fontStyle=1;align=center;verticalAlign=top;childLayout=stackLayout;horizontal=1;startSize=26;horizontalStack=0;resizeParent=1;resizeParentMax=0;resizeLast=0;collapsible=1;marginBottom=0;whiteSpace=wrap;html=1;" parent="1" vertex="1">
                    <mxGeometry x="1350" y="50" width="210" height="100" as="geometry"/>
                </mxCell>
                <mxCell id="F5HmfAsB2qFDXrAzad_Q-110" value="nom_lieu : VARCHAR(255)&lt;div&gt;type_restriction : ENUM&lt;/div&gt;" style="text;strokeColor=none;fillColor=none;align=left;verticalAlign=top;spacingLeft=4;spacingRight=4;overflow=hidden;rotatable=0;points=[[0,0.5],[1,0.5]];portConstraint=eastwest;whiteSpace=wrap;html=1;" parent="F5HmfAsB2qFDXrAzad_Q-109" vertex="1">
                    <mxGeometry y="26" width="210" height="44" as="geometry"/>
                </mxCell>
                <mxCell id="F5HmfAsB2qFDXrAzad_Q-111" value="" style="line;strokeWidth=1;fillColor=none;align=left;verticalAlign=middle;spacingTop=-1;spacingLeft=3;spacingRight=3;rotatable=0;labelPosition=right;points=[];portConstraint=eastwest;strokeColor=inherit;" parent="F5HmfAsB2qFDXrAzad_Q-109" vertex="1">
                    <mxGeometry y="70" width="210" height="8" as="geometry"/>
                </mxCell>
                <mxCell id="F5HmfAsB2qFDXrAzad_Q-112" value="valeur : INT" style="text;strokeColor=none;fillColor=none;align=left;verticalAlign=top;spacingLeft=4;spacingRight=4;overflow=hidden;rotatable=0;points=[[0,0.5],[1,0.5]];portConstraint=eastwest;whiteSpace=wrap;html=1;" parent="F5HmfAsB2qFDXrAzad_Q-109" vertex="1">
                    <mxGeometry y="78" width="210" height="22" as="geometry"/>
                </mxCell>
                <mxCell id="F5HmfAsB2qFDXrAzad_Q-116" style="edgeStyle=orthogonalEdgeStyle;rounded=0;orthogonalLoop=1;jettySize=auto;html=1;exitX=0.5;exitY=0;exitDx=0;exitDy=0;endArrow=classic;endFill=1;" parent="1" source="F5HmfAsB2qFDXrAzad_Q-113" target="F5HmfAsB2qFDXrAzad_Q-109" edge="1">
                    <mxGeometry relative="1" as="geometry"/>
                </mxCell>
                <mxCell id="F5HmfAsB2qFDXrAzad_Q-117" value="0-n" style="edgeLabel;html=1;align=center;verticalAlign=middle;resizable=0;points=[];" parent="F5HmfAsB2qFDXrAzad_Q-116" vertex="1" connectable="0">
                    <mxGeometry x="0.3755" y="-2" relative="1" as="geometry">
                        <mxPoint x="13" y="-11" as="offset"/>
                    </mxGeometry>
                </mxCell>
                <mxCell id="F5HmfAsB2qFDXrAzad_Q-113" value="a les regles" style="rhombus;whiteSpace=wrap;html=1;" parent="1" vertex="1">
                    <mxGeometry x="1390" y="220" width="130" height="80" as="geometry"/>
                </mxCell>
                <mxCell id="F5HmfAsB2qFDXrAzad_Q-114" style="edgeStyle=orthogonalEdgeStyle;rounded=0;orthogonalLoop=1;jettySize=auto;html=1;exitX=1;exitY=0.5;exitDx=0;exitDy=0;entryX=0;entryY=0.5;entryDx=0;entryDy=0;endArrow=none;endFill=0;" parent="1" source="F5HmfAsB2qFDXrAzad_Q-61" target="F5HmfAsB2qFDXrAzad_Q-113" edge="1">
                    <mxGeometry relative="1" as="geometry"/>
                </mxCell>
                <mxCell id="F5HmfAsB2qFDXrAzad_Q-118" value="1-1" style="edgeLabel;html=1;align=center;verticalAlign=middle;resizable=0;points=[];" parent="F5HmfAsB2qFDXrAzad_Q-114" vertex="1" connectable="0">
                    <mxGeometry x="-0.2896" y="-2" relative="1" as="geometry">
                        <mxPoint x="-25" y="-10" as="offset"/>
                    </mxGeometry>
                </mxCell>
                <mxCell id="11" value="Utilisateur" style="swimlane;childLayout=stackLayout;horizontal=1;startSize=50;horizontalStack=0;rounded=1;fontSize=14;fontStyle=0;strokeWidth=2;resizeParent=0;resizeLast=1;shadow=0;dashed=0;align=center;arcSize=4;whiteSpace=wrap;html=1;" vertex="1" parent="1">
                    <mxGeometry x="500" y="1450" width="160" height="120" as="geometry"/>
                </mxCell>
                <mxCell id="12" value="&lt;u&gt;email : VARCHAR(100)&lt;/u&gt;&lt;div&gt;&lt;u&gt;&lt;br&gt;&lt;/u&gt;&lt;/div&gt;" style="align=left;strokeColor=none;fillColor=none;spacingLeft=4;fontSize=12;verticalAlign=top;resizable=0;rotatable=0;part=1;html=1;" vertex="1" parent="11">
                    <mxGeometry y="50" width="160" height="70" as="geometry"/>
                </mxCell>
                <mxCell id="13" value="Abonnement/Code_Promo" style="swimlane;childLayout=stackLayout;horizontal=1;startSize=50;horizontalStack=0;rounded=1;fontSize=14;fontStyle=0;strokeWidth=2;resizeParent=0;resizeLast=1;shadow=0;dashed=0;align=center;arcSize=4;whiteSpace=wrap;html=1;" vertex="1" parent="1">
                    <mxGeometry x="520" y="1210" width="180" height="120" as="geometry"/>
                </mxCell>
                <mxCell id="14" value="&lt;div&gt;&lt;u&gt;&lt;br&gt;&lt;/u&gt;&lt;/div&gt;" style="align=left;strokeColor=none;fillColor=none;spacingLeft=4;fontSize=12;verticalAlign=top;resizable=0;rotatable=0;part=1;html=1;" vertex="1" parent="13">
                    <mxGeometry y="50" width="180" height="70" as="geometry"/>
                </mxCell>
                <mxCell id="15" value="Historique" style="swimlane;childLayout=stackLayout;horizontal=1;startSize=50;horizontalStack=0;rounded=1;fontSize=14;fontStyle=0;strokeWidth=2;resizeParent=0;resizeLast=1;shadow=0;dashed=0;align=center;arcSize=4;whiteSpace=wrap;html=1;" vertex="1" parent="1">
                    <mxGeometry x="180" y="1450" width="160" height="120" as="geometry"/>
                </mxCell>
                <mxCell id="16" value="&lt;u&gt;email : VARCHAR(100)&lt;/u&gt;&lt;div&gt;&lt;u&gt;&lt;br&gt;&lt;/u&gt;&lt;/div&gt;" style="align=left;strokeColor=none;fillColor=none;spacingLeft=4;fontSize=12;verticalAlign=top;resizable=0;rotatable=0;part=1;html=1;" vertex="1" parent="15">
                    <mxGeometry y="50" width="160" height="70" as="geometry"/>
                </mxCell>
                <mxCell id="17" value="StatutUtilisateur" style="swimlane;childLayout=stackLayout;horizontal=1;startSize=50;horizontalStack=0;rounded=1;fontSize=14;fontStyle=0;strokeWidth=2;resizeParent=0;resizeLast=1;shadow=0;dashed=0;align=center;arcSize=4;whiteSpace=wrap;html=1;" vertex="1" parent="1">
                    <mxGeometry x="500" y="1750" width="160" height="120" as="geometry"/>
                </mxCell>
                <mxCell id="18" value="max_nb_billet : INT" style="align=left;strokeColor=none;fillColor=none;spacingLeft=4;fontSize=12;verticalAlign=top;resizable=0;rotatable=0;part=1;html=1;" vertex="1" parent="17">
                    <mxGeometry y="50" width="160" height="70" as="geometry"/>
                </mxCell>
                <mxCell id="19" value="Relationship" style="shape=rhombus;double=1;perimeter=rhombusPerimeter;whiteSpace=wrap;html=1;align=center;" vertex="1" parent="1">
                    <mxGeometry x="520" y="1640" width="120" height="60" as="geometry"/>
                </mxCell>
                <mxCell id="20" style="edgeStyle=none;html=1;exitX=0.5;exitY=1;exitDx=0;exitDy=0;entryX=0.5;entryY=0;entryDx=0;entryDy=0;endArrow=none;endFill=0;" edge="1" parent="1" source="12" target="19">
                    <mxGeometry relative="1" as="geometry"/>
                </mxCell>
                <mxCell id="21" value="0-n" style="edgeLabel;html=1;align=center;verticalAlign=middle;resizable=0;points=[];" vertex="1" connectable="0" parent="20">
                    <mxGeometry x="-0.8696" y="1" relative="1" as="geometry">
                        <mxPoint x="9" y="5" as="offset"/>
                    </mxGeometry>
                </mxCell>
                <mxCell id="22" value="" style="shape=link;html=1;rounded=0;exitX=0.5;exitY=1;exitDx=0;exitDy=0;entryX=0.5;entryY=0;entryDx=0;entryDy=0;" edge="1" parent="1" source="19" target="17">
                    <mxGeometry relative="1" as="geometry">
                        <mxPoint x="490" y="1720" as="sourcePoint"/>
                        <mxPoint x="650" y="1720" as="targetPoint"/>
                    </mxGeometry>
                </mxCell>
                <mxCell id="24" value="1-1" style="edgeLabel;html=1;align=center;verticalAlign=middle;resizable=0;points=[];" vertex="1" connectable="0" parent="22">
                    <mxGeometry x="0.695" y="1" relative="1" as="geometry">
                        <mxPoint x="-21" y="-2" as="offset"/>
                    </mxGeometry>
                </mxCell>
                <mxCell id="25" value="Billet" style="swimlane;childLayout=stackLayout;horizontal=1;startSize=50;horizontalStack=0;rounded=1;fontSize=14;fontStyle=0;strokeWidth=2;resizeParent=0;resizeLast=1;shadow=0;dashed=0;align=center;arcSize=4;whiteSpace=wrap;html=1;" vertex="1" parent="1">
                    <mxGeometry x="980" y="1480" width="160" height="120" as="geometry"/>
                </mxCell>
                <mxCell id="26" value="&lt;u&gt;email : VARCHAR(100)&lt;/u&gt;&lt;div&gt;&lt;u&gt;&lt;br&gt;&lt;/u&gt;&lt;/div&gt;" style="align=left;strokeColor=none;fillColor=none;spacingLeft=4;fontSize=12;verticalAlign=top;resizable=0;rotatable=0;part=1;html=1;" vertex="1" parent="25">
                    <mxGeometry y="50" width="160" height="70" as="geometry"/>
                </mxCell>
                <mxCell id="27" value="Etablissement" style="swimlane;childLayout=stackLayout;horizontal=1;startSize=50;horizontalStack=0;rounded=1;fontSize=14;fontStyle=0;strokeWidth=2;resizeParent=0;resizeLast=1;shadow=0;dashed=0;align=center;arcSize=4;whiteSpace=wrap;html=1;" vertex="1" parent="1">
                    <mxGeometry x="1410" y="1260" width="160" height="120" as="geometry"/>
                </mxCell>
                <mxCell id="28" value="&lt;div&gt;&lt;u&gt;adresse : VARCHAR(255)&lt;/u&gt;&lt;/div&gt;" style="align=left;strokeColor=none;fillColor=none;spacingLeft=4;fontSize=12;verticalAlign=top;resizable=0;rotatable=0;part=1;html=1;" vertex="1" parent="27">
                    <mxGeometry y="50" width="160" height="70" as="geometry"/>
                </mxCell>
                <mxCell id="29" value="PolitiqueEtablissement" style="swimlane;childLayout=stackLayout;horizontal=1;startSize=50;horizontalStack=0;rounded=1;fontSize=14;fontStyle=0;strokeWidth=2;resizeParent=0;resizeLast=1;shadow=0;dashed=0;align=center;arcSize=4;whiteSpace=wrap;html=1;" vertex="1" parent="1">
                    <mxGeometry x="1410" y="980" width="160" height="120" as="geometry"/>
                </mxCell>
                <mxCell id="30" value="&lt;div&gt;&lt;u&gt;regles : TEXT&lt;/u&gt;&lt;/div&gt;" style="align=left;strokeColor=none;fillColor=none;spacingLeft=4;fontSize=12;verticalAlign=top;resizable=0;rotatable=0;part=1;html=1;" vertex="1" parent="29">
                    <mxGeometry y="50" width="160" height="70" as="geometry"/>
                </mxCell>
                <mxCell id="31" value="respecte" style="shape=rhombus;perimeter=rhombusPerimeter;whiteSpace=wrap;html=1;align=center;" vertex="1" parent="1">
                    <mxGeometry x="1430" y="1150" width="120" height="60" as="geometry"/>
                </mxCell>
                <mxCell id="33" value="" style="endArrow=none;html=1;rounded=0;entryX=0.5;entryY=1;entryDx=0;entryDy=0;exitX=0.5;exitY=0;exitDx=0;exitDy=0;" edge="1" parent="1" source="31" target="30">
                    <mxGeometry relative="1" as="geometry">
                        <mxPoint x="1420" y="1200" as="sourcePoint"/>
                        <mxPoint x="1580" y="1200" as="targetPoint"/>
                    </mxGeometry>
                </mxCell>
                <mxCell id="37" value="0-n" style="edgeLabel;html=1;align=center;verticalAlign=middle;resizable=0;points=[];" vertex="1" connectable="0" parent="33">
                    <mxGeometry x="0.5143" relative="1" as="geometry">
                        <mxPoint x="-10" as="offset"/>
                    </mxGeometry>
                </mxCell>
                <mxCell id="35" value="" style="endArrow=none;html=1;rounded=0;exitX=0.5;exitY=1;exitDx=0;exitDy=0;entryX=0.5;entryY=0;entryDx=0;entryDy=0;" edge="1" parent="1" source="31" target="27">
                    <mxGeometry relative="1" as="geometry">
                        <mxPoint x="1420" y="1200" as="sourcePoint"/>
                        <mxPoint x="1580" y="1200" as="targetPoint"/>
                    </mxGeometry>
                </mxCell>
                <mxCell id="38" value="0-n" style="edgeLabel;html=1;align=center;verticalAlign=middle;resizable=0;points=[];" vertex="1" connectable="0" parent="35">
                    <mxGeometry x="0.6476" y="1" relative="1" as="geometry">
                        <mxPoint x="-11" as="offset"/>
                    </mxGeometry>
                </mxCell>
                <mxCell id="39" value="Evenement" style="swimlane;childLayout=stackLayout;horizontal=1;startSize=50;horizontalStack=0;rounded=1;fontSize=14;fontStyle=0;strokeWidth=2;resizeParent=0;resizeLast=1;shadow=0;dashed=0;align=center;arcSize=4;whiteSpace=wrap;html=1;" vertex="1" parent="1">
                    <mxGeometry x="1420" y="1510" width="270" height="120" as="geometry"/>
                </mxCell>
                <mxCell id="51" value="&lt;u&gt;nom_evenement : VARCHAR(255)&lt;/u&gt;" style="align=left;strokeColor=none;fillColor=none;spacingLeft=4;fontSize=12;verticalAlign=top;resizable=0;rotatable=0;part=1;html=1;" vertex="1" parent="39">
                    <mxGeometry y="50" width="270" height="70" as="geometry"/>
                </mxCell>
                <mxCell id="45" style="edgeStyle=none;html=1;exitX=0.75;exitY=0;exitDx=0;exitDy=0;entryX=0.25;entryY=1;entryDx=0;entryDy=0;" edge="1" parent="1" source="41">
                    <mxGeometry relative="1" as="geometry">
                        <mxPoint x="1460" y="1630" as="targetPoint"/>
                    </mxGeometry>
                </mxCell>
                <mxCell id="41" value="Film" style="swimlane;childLayout=stackLayout;horizontal=1;startSize=50;horizontalStack=0;rounded=1;fontSize=14;fontStyle=0;strokeWidth=2;resizeParent=0;resizeLast=1;shadow=0;dashed=0;align=center;arcSize=4;whiteSpace=wrap;html=1;" vertex="1" parent="1">
                    <mxGeometry x="1290" y="1680" width="160" height="120" as="geometry"/>
                </mxCell>
                <mxCell id="46" style="edgeStyle=none;html=1;exitX=0.25;exitY=0;exitDx=0;exitDy=0;entryX=0.75;entryY=1;entryDx=0;entryDy=0;" edge="1" parent="1" source="43">
                    <mxGeometry relative="1" as="geometry">
                        <mxPoint x="1540" y="1630" as="targetPoint"/>
                    </mxGeometry>
                </mxCell>
                <mxCell id="43" value="Concert" style="swimlane;childLayout=stackLayout;horizontal=1;startSize=50;horizontalStack=0;rounded=1;fontSize=14;fontStyle=0;strokeWidth=2;resizeParent=0;resizeLast=1;shadow=0;dashed=0;align=center;arcSize=4;whiteSpace=wrap;html=1;" vertex="1" parent="1">
                    <mxGeometry x="1520" y="1680" width="160" height="120" as="geometry"/>
                </mxCell>
                <mxCell id="47" value="" style="endArrow=none;html=1;rounded=0;dashed=1;dashPattern=1 2;" edge="1" parent="1">
                    <mxGeometry relative="1" as="geometry">
                        <mxPoint x="1400" y="1650" as="sourcePoint"/>
                        <mxPoint x="1660" y="1650" as="targetPoint"/>
                    </mxGeometry>
                </mxCell>
                <mxCell id="48" value="total" style="resizable=0;html=1;whiteSpace=wrap;align=right;verticalAlign=bottom;" connectable="0" vertex="1" parent="47">
                    <mxGeometry x="1" relative="1" as="geometry"/>
                </mxCell>
                <mxCell id="58" style="edgeStyle=none;html=1;exitX=0;exitY=0.5;exitDx=0;exitDy=0;entryX=1;entryY=0.5;entryDx=0;entryDy=0;endArrow=none;endFill=0;" edge="1" parent="1" source="52" target="57">
                    <mxGeometry relative="1" as="geometry"/>
                </mxCell>
                <mxCell id="52" value="Seance" style="shape=rhombus;perimeter=rhombusPerimeter;whiteSpace=wrap;html=1;align=center;" vertex="1" parent="1">
                    <mxGeometry x="1470" y="1420" width="120" height="60" as="geometry"/>
                </mxCell>
                <mxCell id="53" value="" style="endArrow=none;html=1;rounded=0;entryX=0.5;entryY=1;entryDx=0;entryDy=0;exitX=0.5;exitY=0;exitDx=0;exitDy=0;" edge="1" parent="1" source="52" target="28">
                    <mxGeometry relative="1" as="geometry">
                        <mxPoint x="1410" y="1500" as="sourcePoint"/>
                        <mxPoint x="1570" y="1500" as="targetPoint"/>
                    </mxGeometry>
                </mxCell>
                <mxCell id="55" value="" style="endArrow=none;html=1;rounded=0;entryX=0.5;entryY=0;entryDx=0;entryDy=0;exitX=0.5;exitY=1;exitDx=0;exitDy=0;" edge="1" parent="1" source="52" target="39">
                    <mxGeometry relative="1" as="geometry">
                        <mxPoint x="1650" y="1460" as="sourcePoint"/>
                        <mxPoint x="1610" y="1420" as="targetPoint"/>
                    </mxGeometry>
                </mxCell>
                <mxCell id="57" value="date-heure&lt;div&gt;N° salle&lt;/div&gt;" style="ellipse;whiteSpace=wrap;html=1;align=center;" vertex="1" parent="1">
                    <mxGeometry x="1340" y="1430" width="100" height="50" as="geometry"/>
                </mxCell>
                <mxCell id="60" value="Categorie" style="swimlane;childLayout=stackLayout;horizontal=1;startSize=50;horizontalStack=0;rounded=1;fontSize=14;fontStyle=0;strokeWidth=2;resizeParent=0;resizeLast=1;shadow=0;dashed=0;align=center;arcSize=4;whiteSpace=wrap;html=1;" vertex="1" parent="1">
                    <mxGeometry x="1220" y="1170" width="160" height="120" as="geometry"/>
                </mxCell>
                <mxCell id="61" value="&lt;div&gt;&lt;u&gt;adresse : VARCHAR(255)&lt;/u&gt;&lt;/div&gt;" style="align=left;strokeColor=none;fillColor=none;spacingLeft=4;fontSize=12;verticalAlign=top;resizable=0;rotatable=0;part=1;html=1;" vertex="1" parent="60">
                    <mxGeometry y="50" width="160" height="70" as="geometry"/>
                </mxCell>
                <mxCell id="64" style="edgeStyle=none;html=1;exitX=0.5;exitY=0;exitDx=0;exitDy=0;entryX=0.25;entryY=1;entryDx=0;entryDy=0;endArrow=none;endFill=0;" edge="1" parent="1" source="62" target="61">
                    <mxGeometry relative="1" as="geometry"/>
                </mxCell>
                <mxCell id="62" value="Choisir" style="shape=rhombus;perimeter=rhombusPerimeter;whiteSpace=wrap;html=1;align=center;" vertex="1" parent="1">
                    <mxGeometry x="1180" y="1340" width="120" height="60" as="geometry"/>
                </mxCell>
                <mxCell id="63" style="edgeStyle=none;html=1;entryX=0.5;entryY=1;entryDx=0;entryDy=0;endArrow=none;endFill=0;" edge="1" parent="1" source="25" target="62">
                    <mxGeometry relative="1" as="geometry"/>
                </mxCell>
                <mxCell id="65" style="edgeStyle=none;html=1;exitX=1;exitY=0.5;exitDx=0;exitDy=0;entryX=0;entryY=0.5;entryDx=0;entryDy=0;endArrow=none;endFill=0;" edge="1" parent="1" source="26" target="66">
                    <mxGeometry relative="1" as="geometry"/>
                </mxCell>
                <mxCell id="67" style="edgeStyle=none;html=1;exitX=1;exitY=0.5;exitDx=0;exitDy=0;entryX=0;entryY=0.75;entryDx=0;entryDy=0;endArrow=none;endFill=0;" edge="1" parent="1" source="66" target="39">
                    <mxGeometry relative="1" as="geometry"/>
                </mxCell>
                <mxCell id="66" value="Reserver" style="shape=rhombus;perimeter=rhombusPerimeter;whiteSpace=wrap;html=1;align=center;" vertex="1" parent="1">
                    <mxGeometry x="1210" y="1530" width="120" height="60" as="geometry"/>
                </mxCell>
            </root>
        </mxGraphModel>
    </diagram>
</mxfile>